<svg width="57" height="56" viewBox="0 0 57 56" fill="none" xmlns="http://www.w3.org/2000/svg">
<path d="M28.1048 50.7203C20.6583 50.7203 14.0498 47.1515 9.88489 41.6336L7.0661 46.5161C12.2134 52.3309 19.728 56 28.1048 56C36.4816 56 43.9963 52.3309 49.1435 46.5161L46.3248 41.6336C42.1603 47.1515 35.5514 50.7203 28.1048 50.7203Z" fill="#1ED3EF"/>
<path d="M54.1393 17.3056C50.3691 8.04628 41.8078 1.2504 31.5323 0.000286102L28.5993 5.07985C37.9487 5.27868 45.9105 11.0977 49.2484 19.2952C50.3297 21.9503 50.93 24.852 50.93 27.895C50.93 30.9185 50.3369 33.8016 49.2696 36.4419C48.6769 37.9077 47.934 39.2953 47.065 40.5916H53.1726C53.5318 39.8834 53.8656 39.16 54.1651 38.4192C55.4795 35.168 56.2101 31.6178 56.2101 27.895C56.2101 24.148 55.4702 20.5749 54.1393 17.3056Z" fill="#5EEDFF"/>
<path d="M6.94057 36.442C5.87321 33.8017 5.28009 30.9182 5.28009 27.8951C5.28009 24.8521 5.8804 21.95 6.9613 19.2953C10.2992 11.0974 18.2614 5.2788 27.6104 5.07955L24.6774 -1.52588e-05C14.4019 1.2501 5.84063 8.0464 2.07041 17.3057C0.739492 20.5746 0 24.1477 0 27.8951C0 31.6179 0.730185 35.1677 2.0446 38.4193C2.34412 39.1601 2.67791 39.8835 3.03708 40.5917H9.14508C8.27571 39.2954 7.53284 37.9078 6.94057 36.442Z" fill="#9AF8FF"/>
<path d="M27.4828 30.021L16.343 25.1174V38.2882L27.8707 42.9938L27.4828 30.021Z" fill="#A68755"/>
<path d="M28.1049 25.9739C27.0735 25.9739 26.2376 25.1376 26.2376 24.1066C26.2376 23.0748 27.0735 22.2392 28.1049 22.2392C29.1363 22.2392 29.9723 23.0748 29.9723 24.1066C29.9723 25.1376 29.1363 25.9739 28.1049 25.9739ZM14.8727 15.1015V23.9374L28.1049 28.9243L41.3371 23.9374V15.1015H14.8727Z" fill="#C7A466"/>
<path d="M28.7269 30.021L28.3389 42.9938L39.8671 38.2882V25.1174L28.7269 30.021Z" fill="#8C7043"/>
</svg>
